<svg width="120" height="120" viewBox="0 0 120 120" fill="none" xmlns="http://www.w3.org/2000/svg">
  <!-- Cube 1 (bottom left) -->
  <g>
    <polygon points="30,80 50,70 70,80 50,90" fill="#4a90e2" stroke="#222" stroke-width="2"/>
    <polygon points="30,80 50,70 50,50 30,60" fill="#357ab8" stroke="#222" stroke-width="2"/>
    <polygon points="50,70 70,80 70,60 50,50" fill="#6fb3f2" stroke="#222" stroke-width="2"/>
  </g>
  <!-- Cube 2 (bottom right) -->
  <g>
    <polygon points="70,80 90,70 110,80 90,90" fill="#ffc107" stroke="#222" stroke-width="2"/>
    <polygon points="70,80 90,70 90,50 70,60" fill="#e0a800" stroke="#222" stroke-width="2"/>
    <polygon points="90,70 110,80 110,60 90,50" fill="#ffe082" stroke="#222" stroke-width="2"/>
  </g>
  <!-- Cube 3 (top center) -->
  <g>
    <polygon points="50,50 70,60 90,50 70,40" fill="#28a745" stroke="#222" stroke-width="2"/>
    <polygon points="50,50 70,40 70,20 50,30" fill="#1e7e34" stroke="#222" stroke-width="2"/>
    <polygon points="70,40 90,50 90,30 70,20" fill="#81c784" stroke="#222" stroke-width="2"/>
  </g>
  <!-- Optional: App name below -->
  <text x="60" y="110" text-anchor="middle" font-size="18" font-family="Arial, sans-serif" fill="#222" font-weight="bold">My Cargo</text>
</svg>